<mxfile host="app.diagrams.net" agent="Mozilla/5.0 (Macintosh; Intel Mac OS X 10_15_7) AppleWebKit/537.36 (KHTML, like Gecko) Chrome/127.0.0.0 Safari/537.36" version="24.7.7">
  <diagram id="R2lEEEUBdFMjLlhIrx00" name="Page-1">
    <mxGraphModel dx="1778" dy="830" grid="1" gridSize="10" guides="1" tooltips="1" connect="1" arrows="1" fold="1" page="1" pageScale="1" pageWidth="850" pageHeight="1100" math="0" shadow="0" extFonts="Permanent Marker^https://fonts.googleapis.com/css?family=Permanent+Marker">
      <root>
        <mxCell id="0" />
        <mxCell id="1" parent="0" />
        <mxCell id="vX5ZQVT2QjgSMzLv87wR-2" value="SONG" style="swimlane;childLayout=stackLayout;horizontal=1;startSize=50;horizontalStack=0;rounded=1;fontSize=14;fontStyle=0;strokeWidth=2;resizeParent=0;resizeLast=1;shadow=0;dashed=0;align=center;arcSize=4;whiteSpace=wrap;html=1;" vertex="1" parent="1">
          <mxGeometry x="80" y="160" width="160" height="120" as="geometry">
            <mxRectangle x="100" y="410" width="80" height="50" as="alternateBounds" />
          </mxGeometry>
        </mxCell>
        <mxCell id="vX5ZQVT2QjgSMzLv87wR-3" value="+ Name&lt;br&gt;+ Artist&lt;br&gt;+ Key&lt;div&gt;+ BPM&lt;/div&gt;" style="align=left;strokeColor=none;fillColor=none;spacingLeft=4;fontSize=12;verticalAlign=top;resizable=0;rotatable=0;part=1;html=1;" vertex="1" parent="vX5ZQVT2QjgSMzLv87wR-2">
          <mxGeometry y="50" width="160" height="70" as="geometry" />
        </mxCell>
        <mxCell id="vX5ZQVT2QjgSMzLv87wR-4" value="RACKSPACE" style="swimlane;childLayout=stackLayout;horizontal=1;startSize=50;horizontalStack=0;rounded=1;fontSize=14;fontStyle=0;strokeWidth=2;resizeParent=0;resizeLast=1;shadow=0;dashed=0;align=center;arcSize=4;whiteSpace=wrap;html=1;" vertex="1" parent="1">
          <mxGeometry x="320" y="160" width="160" height="120" as="geometry">
            <mxRectangle x="100" y="410" width="80" height="50" as="alternateBounds" />
          </mxGeometry>
        </mxCell>
        <mxCell id="vX5ZQVT2QjgSMzLv87wR-5" value="+ Name&lt;br&gt;+ Artist&lt;br&gt;+ Key&lt;div&gt;+ BPM&lt;/div&gt;" style="align=left;strokeColor=none;fillColor=none;spacingLeft=4;fontSize=12;verticalAlign=top;resizable=0;rotatable=0;part=1;html=1;" vertex="1" parent="vX5ZQVT2QjgSMzLv87wR-4">
          <mxGeometry y="50" width="160" height="70" as="geometry" />
        </mxCell>
        <mxCell id="vX5ZQVT2QjgSMzLv87wR-9" value=".gpsong" style="whiteSpace=wrap;html=1;shape=mxgraph.basic.document" vertex="1" parent="1">
          <mxGeometry x="110" y="360" width="100" height="100" as="geometry" />
        </mxCell>
        <mxCell id="vX5ZQVT2QjgSMzLv87wR-10" style="edgeStyle=orthogonalEdgeStyle;rounded=0;orthogonalLoop=1;jettySize=auto;html=1;exitX=0.5;exitY=1;exitDx=0;exitDy=0;entryX=0.5;entryY=0;entryDx=0;entryDy=0;entryPerimeter=0;" edge="1" parent="1" source="vX5ZQVT2QjgSMzLv87wR-3" target="vX5ZQVT2QjgSMzLv87wR-9">
          <mxGeometry relative="1" as="geometry" />
        </mxCell>
        <mxCell id="vX5ZQVT2QjgSMzLv87wR-11" style="edgeStyle=orthogonalEdgeStyle;rounded=0;orthogonalLoop=1;jettySize=auto;html=1;exitX=1;exitY=0.25;exitDx=0;exitDy=0;entryX=0;entryY=0.25;entryDx=0;entryDy=0;endArrow=oval;endFill=0;startArrow=ERmany;startFill=0;" edge="1" parent="1" source="vX5ZQVT2QjgSMzLv87wR-3" target="vX5ZQVT2QjgSMzLv87wR-5">
          <mxGeometry relative="1" as="geometry" />
        </mxCell>
        <mxCell id="vX5ZQVT2QjgSMzLv87wR-12" value="Gig File" style="swimlane;childLayout=stackLayout;horizontal=1;startSize=50;horizontalStack=0;rounded=1;fontSize=14;fontStyle=0;strokeWidth=2;resizeParent=0;resizeLast=1;shadow=0;dashed=0;align=center;arcSize=4;whiteSpace=wrap;html=1;" vertex="1" parent="1">
          <mxGeometry x="80" y="560" width="730" height="520" as="geometry">
            <mxRectangle x="100" y="410" width="80" height="50" as="alternateBounds" />
          </mxGeometry>
        </mxCell>
      </root>
    </mxGraphModel>
  </diagram>
</mxfile>
